<?xml version="1.0" encoding="UTF-8" standalone="no"?>
<!DOCTYPE svg PUBLIC "-//W3C//DTD SVG 1.1//EN" "http://www.w3.org/Graphics/SVG/1.1/DTD/svg11.dtd">
<svg version="1.1" xmlns="http://www.w3.org/2000/svg" xmlns:xlink="http://www.w3.org/1999/xlink" preserveAspectRatio="xMidYMid meet" viewBox="0 0 640 640" width="640" height="640"><defs><path d="M500 300C500 410.38 410.38 500 300 500C189.62 500 100 410.38 100 300C100 189.62 189.62 100 300 100C410.38 100 500 189.62 500 300Z" id="c5FP9SHESp"></path><clipPath id="clipeqSsiYMbW"><use xlink:href="#c5FP9SHESp" opacity="1"></use></clipPath><path d="M281.25 62.76L262.5 112.76L300 112.76L337.5 112.76L318.75 62.76L300 12.76L281.25 62.76Z" id="d4KSiLt7SJ"></path><path d="M318.75 540L337.5 490L300 490L262.5 490L281.25 540L300 590L318.75 540Z" id="bsNw62sDT"></path><path d="M540 281.25L490 262.5L490 300L490 337.5L540 318.75L590 300L540 281.25Z" id="agYaJKiXt"></path><path d="M460 113.48L411.39 135.58L437.9 162.1L464.42 188.61L486.52 140L508.61 91.39L460 113.48Z" id="a16Z1K8uJQ"></path><path d="M60 318.75L110 337.5L110 300L110 262.5L60 281.25L10 300L60 318.75Z" id="brNi8XoMf"></path><path d="M140 486.52L188.61 464.42L162.1 437.9L135.58 411.39L113.48 460L91.39 508.61L140 486.52Z" id="m7jdPIQJUk"></path><path d="M113.48 140L135.58 188.61L162.1 162.1L188.61 135.58L140 113.48L91.39 91.39L113.48 140Z" id="a5MhWq03id"></path><path d="M486.52 460L464.42 411.39L437.9 437.9L411.39 464.42L460 486.52L508.61 508.61L486.52 460Z" id="abmNRJ59z"></path><path d="M270 220L240 280L300 280L360 280L330 220L300 160L270 220Z" id="b2Sr4Wmptv"></path><clipPath id="clipaf9cUpCG0"><use xlink:href="#b2Sr4Wmptv" opacity="1"></use></clipPath><path d="M265.01 371.74L230 291.74L300 291.73L370 291.73L335.01 371.73L300.01 451.73L265.01 371.74Z" id="aYmmC22i"></path><path d="M145 291L219.71 291L219.71 317L145 317L145 291Z" id="e94rBdlnP"></path><path d="M380 291L454.71 291L454.71 317.44L380 317.44L380 291Z" id="bhFVKB1vI"></path><path d="M226.54 304L233.01 317L220.01 317L207.01 317L213.54 304L220.08 291L226.54 304Z" id="b2KwP0GoKs"></path><path d="M386.54 304L393 317L380 317L367 317L373.54 304L380.07 291L386.54 304Z" id="b1sZCctvSp"></path><path d="M171.32 217L135 317L171.32 317L171.32 217Z" id="c5SWjQ9bR"></path><path d="M430 217L466.32 317L430 317L430 217Z" id="a1CA6cTuwa"></path></defs><g><g><g><use xlink:href="#c5FP9SHESp" opacity="1" fill="#745e4d" fill-opacity="0"></use><g clip-path="url(#clipeqSsiYMbW)"><use xlink:href="#c5FP9SHESp" opacity="1" fill-opacity="0" stroke="#000000" stroke-width="30" stroke-opacity="1"></use></g></g><g><use xlink:href="#d4KSiLt7SJ" opacity="1" fill="#000000" fill-opacity="1"></use></g><g><use xlink:href="#bsNw62sDT" opacity="1" fill="#000000" fill-opacity="1"></use></g><g><use xlink:href="#agYaJKiXt" opacity="1" fill="#000000" fill-opacity="1"></use></g><g><use xlink:href="#a16Z1K8uJQ" opacity="1" fill="#000000" fill-opacity="1"></use></g><g><use xlink:href="#brNi8XoMf" opacity="1" fill="#000000" fill-opacity="1"></use></g><g><use xlink:href="#m7jdPIQJUk" opacity="1" fill="#000000" fill-opacity="1"></use></g><g><use xlink:href="#a5MhWq03id" opacity="1" fill="#000000" fill-opacity="1"></use></g><g><use xlink:href="#abmNRJ59z" opacity="1" fill="#000000" fill-opacity="1"></use></g><g><g clip-path="url(#clipaf9cUpCG0)"><use xlink:href="#b2Sr4Wmptv" opacity="1" fill-opacity="0" stroke="#000000" stroke-width="30" stroke-opacity="1"></use></g></g><g><use xlink:href="#aYmmC22i" opacity="1" fill="#000000" fill-opacity="1"></use><g><use xlink:href="#aYmmC22i" opacity="1" fill-opacity="0" stroke="#000000" stroke-width="1" stroke-opacity="1"></use></g></g><g><use xlink:href="#e94rBdlnP" opacity="1" fill="#03020e" fill-opacity="1"></use></g><g><use xlink:href="#bhFVKB1vI" opacity="1" fill="#03020e" fill-opacity="1"></use></g><g><use xlink:href="#b2KwP0GoKs" opacity="1" fill="#03020e" fill-opacity="1"></use></g><g><use xlink:href="#b1sZCctvSp" opacity="1" fill="#03020e" fill-opacity="1"></use></g><g><use xlink:href="#c5SWjQ9bR" opacity="1" fill="#03020e" fill-opacity="1"></use></g><g><use xlink:href="#a1CA6cTuwa" opacity="1" fill="#03020e" fill-opacity="1"></use></g></g></g></svg>